<?xml version="1.0" encoding="UTF-8"?><svg xmlns="http://www.w3.org/2000/svg" viewBox="0 0 198.5 101.5"><defs><style>.cls-1{fill:#fff;}.cls-2{fill:#d9f6ff;}.cls-3{mix-blend-mode:multiply;}.cls-4{isolation:isolate;}</style></defs><g class="cls-4"><g id="Calque_2"><g id="OBJECTS"><g><path class="cls-2" d="M196.29,65.93c-2.52,14.8-15.4,26.07-30.92,26.07-10.7,0-20.14-5.36-25.81-13.54-3.27,1.15-6.78,1.79-10.44,1.79-10.99,0-20.65-5.65-26.25-14.2-4.2,1.58-8.75,2.45-13.5,2.45-7.03,0-13.62-1.9-19.29-5.21-3.33,.94-6.83,1.46-10.46,1.46-3.29,0-6.48-.42-9.53-1.19-4.97,8.49-14.17,14.19-24.72,14.19-9.53,0-17.97-4.66-23.17-11.82-1.41,3.15-2.21,6.64-2.21,10.32,0,13.95,11.3,25.25,25.25,25.25,8.03,0,15.19-3.76,19.81-9.6,8.35,6.04,18.6,9.6,29.69,9.6,12.12,0,23.24-4.25,31.96-11.34,6.69,6.98,16.1,11.34,26.54,11.34,8.31,0,15.97-2.76,22.13-7.41,4.57,4.58,10.89,7.41,17.87,7.41,13.95,0,25.25-11.3,25.25-25.25,0-3.68-.79-7.17-2.21-10.32Z"/><path class="cls-1" d="M173.25,51c-1.95,0-3.84,.23-5.66,.65-5.28-13.82-18.66-23.65-34.34-23.65-4.26,0-8.35,.73-12.16,2.07C113.17,12.35,95.41,0,74.75,0,46.72,0,24,22.72,24,50.75c0,.09,0,.19,0,.28C10.64,51.68,0,62.72,0,76.25s11.3,25.25,25.25,25.25c8.03,0,15.19-3.76,19.81-9.6,8.35,6.04,18.6,9.6,29.69,9.6,12.12,0,23.24-4.25,31.96-11.34,6.69,6.98,16.1,11.34,26.54,11.34,8.31,0,15.97-2.76,22.13-7.41,4.57,4.58,10.89,7.41,17.87,7.41,13.95,0,25.25-11.3,25.25-25.25s-11.3-25.25-25.25-25.25Z"/><path class="cls-2" d="M196.29,65.93c-2.52,14.8-15.4,26.07-30.92,26.07-10.7,0-20.14-5.36-25.81-13.54-3.27,1.15-6.78,1.79-10.44,1.79-10.99,0-20.65-5.65-26.25-14.2-4.2,1.58-8.75,2.45-13.5,2.45-7.03,0-13.62-1.9-19.29-5.21-3.33,.94-6.83,1.46-10.46,1.46-3.29,0-6.48-.42-9.53-1.19-4.97,8.49-14.17,14.19-24.72,14.19-9.53,0-17.97-4.66-23.17-11.82-1.41,3.15-2.21,6.64-2.21,10.32,0,13.95,11.3,25.25,25.25,25.25,8.03,0,15.19-3.76,19.81-9.6,8.35,6.04,18.6,9.6,29.69,9.6,12.12,0,23.24-4.25,31.96-11.34,6.69,6.98,16.1,11.34,26.54,11.34,8.31,0,15.97-2.76,22.13-7.41,4.57,4.58,10.89,7.41,17.87,7.41,13.95,0,25.25-11.3,25.25-25.25,0-3.68-.79-7.17-2.21-10.32Z"/><g class="cls-3"><path class="cls-2" d="M28.82,77.53c-1.13,.14-2.28,.22-3.45,.22-9.53,0-17.97-4.66-23.17-11.82-1.41,3.15-2.21,6.64-2.21,10.32,0,13.95,11.3,25.25,25.25,25.25,7.99,0,15.11-3.72,19.74-9.52-7.05-2.54-12.84-7.76-16.16-14.45Z"/><path class="cls-2" d="M144.54,97.88c-8.75,0-16.01-6.41-17.46-14.82-1.82,.63-3.76,.99-5.79,.99-4.57,0-8.73-1.76-11.87-4.63-5.11,4.57-11.84,7.34-19.2,7.34-4.85,0-9.43-1.21-13.45-3.34-5.32,6.27-13.21,10.25-22.03,10.25-3.28,0-6.44-.56-9.38-1.57,8.29,5.9,18.43,9.39,29.38,9.39,12.12,0,23.24-4.25,31.96-11.34,6.69,6.98,16.1,11.34,26.54,11.34,7.46,0,14.39-2.23,20.18-6.04-2.62,1.53-5.65,2.43-8.89,2.43Z"/><path class="cls-2" d="M196.29,65.93c-2.52,14.8-15.4,26.07-30.92,26.07-2.41,0-4.76-.29-7.02-.8-.87,1.09-1.86,2.06-2.95,2.91,4.57,4.57,10.88,7.39,17.84,7.39,13.95,0,25.25-11.3,25.25-25.25,0-3.68-.79-7.17-2.21-10.32Z"/></g></g></g></g></g></svg>