<?xml version="1.0" encoding="UTF-8"?><svg xmlns="http://www.w3.org/2000/svg" viewBox="0 0 206.33 91"><defs><style>.cls-1{fill:#fff;}.cls-2{fill:#d9f6ff;}.cls-3{mix-blend-mode:multiply;}.cls-4{isolation:isolate;}</style></defs><g class="cls-4"><g id="Calque_2"><g id="OBJECTS"><g><path class="cls-1" d="M178.19,19.61c-7.53-10.46-19.81-17.28-33.69-17.28-10.82,0-20.67,4.15-28.06,10.93-2.76-2.25-6.27-3.6-10.11-3.6-2.62,0-5.1,.64-7.28,1.77-2.9-2.94-6.93-4.77-11.39-4.77-6.06,0-11.33,3.37-14.04,8.33C67.88,5.99,57.81,0,46.33,0c-13.75,0-25.48,8.58-30.16,20.68-.06,0-.12,0-.17,0C7.16,20.67,0,27.83,0,36.67c0,4.06,1.53,7.76,4.03,10.59-1.29,2.71-2.03,5.72-2.03,8.91,0,11.51,9.33,20.83,20.83,20.83,6.35,0,12.03-2.85,15.85-7.34,1.53,7.24,7.95,12.67,15.65,12.67,4.77,0,9.05-2.1,11.98-5.42,5.83,8.5,15.6,14.08,26.69,14.08s20.77-5.53,26.6-13.96c6.94,5.21,15.56,8.3,24.9,8.3,6.15,0,11.98-1.35,17.23-3.75,3.78,1.55,7.92,2.42,12.27,2.42,17.86,0,32.33-14.48,32.33-32.33,0-16.44-12.27-30-28.14-32.05Z"/><g><path class="cls-2" d="M65.96,6.66c-.6-.46-1.21-.9-1.85-1.32,.33,.58,.65,1.17,.94,1.77,.3-.16,.6-.3,.91-.45Z"/><path class="cls-2" d="M197.3,29.26c0,.21,.03,.41,.03,.61,0,12.08-9.79,21.88-21.88,21.88-3.12,0-6.08-.66-8.76-1.83-3.97,2.37-8.51,3.86-13.37,4.23-7.47,10.35-19.63,17.1-33.37,17.1-8.59,0-16.56-2.64-23.16-7.14-4.81,2.79-10.38,4.39-16.34,4.39-12.9,0-24.05-7.49-29.35-18.36-4.59,2.46-9.83,3.86-15.4,3.86-16.21,0-29.66-11.83-32.19-27.33-2.2,2.74-3.52,6.21-3.52,10,0,4.06,1.53,7.76,4.03,10.59-1.29,2.71-2.03,5.72-2.03,8.91,0,11.51,9.33,20.83,20.83,20.83,6.35,0,12.03-2.85,15.85-7.34,1.53,7.24,7.95,12.67,15.65,12.67,4.77,0,9.05-2.1,11.98-5.42,5.83,8.5,15.6,14.08,26.69,14.08s20.77-5.53,26.6-13.96c6.94,5.21,15.56,8.3,24.9,8.3,6.15,0,11.98-1.35,17.23-3.75,3.78,1.55,7.92,2.42,12.27,2.42,17.86,0,32.33-14.48,32.33-32.33,0-8.7-3.44-16.59-9.03-22.4Z"/></g><g class="cls-3"><path class="cls-2" d="M200.19,53.76c.08,.62,.14,1.26,.14,1.91,0,7.73-6.27,14-14,14-2.09,0-4.06-.47-5.84-1.29-3.03,5.54-8.9,9.29-15.66,9.29-5.5,0-10.41-2.49-13.68-6.4-2.49,1.31-5.31,2.07-8.32,2.07-4.03,0-7.73-1.35-10.72-3.6-4.99,3.92-11.28,6.27-18.11,6.27-4.59,0-8.92-1.05-12.79-2.93-4.41,3.9-10.2,6.26-16.54,6.26-8.27,0-15.6-4.02-20.15-10.21-2.93,1.21-6.14,1.88-9.51,1.88-8.3,0-15.66-4.05-20.2-10.28-4.08,2.9-9.07,4.61-14.46,4.61-7.21,0-13.71-3.06-18.27-7.94,.64,10.93,9.68,19.61,20.77,19.61,6.35,0,12.03-2.85,15.85-7.34,1.53,7.24,7.95,12.67,15.65,12.67,4.77,0,9.05-2.1,11.98-5.42,5.83,8.5,15.6,14.08,26.69,14.08s20.77-5.53,26.6-13.96c6.94,5.21,15.56,8.3,24.9,8.3,6.15,0,11.98-1.35,17.23-3.75,3.78,1.55,7.92,2.42,12.27,2.42,17.86,0,32.33-14.48,32.33-32.33,0-.23-.01-.46-.02-.68-1.75,1.38-3.84,2.36-6.13,2.78Z"/></g></g></g></g></g></svg>