<?xml version="1.0" encoding="UTF-8"?><svg xmlns="http://www.w3.org/2000/svg" viewBox="0 0 228.63 88.34"><defs><style>.cls-1{fill:#fff;}.cls-2{fill:#d9f6ff;}.cls-3{mix-blend-mode:multiply;}.cls-4{isolation:isolate;}</style></defs><g class="cls-4"><g id="Calque_2"><g id="OBJECTS"><g><path class="cls-1" d="M219.83,69.5c-.53,0-1.04,.05-1.54,.14-1.61-4.9-6.21-8.45-11.65-8.47-.75-7.52-5.34-13.91-11.79-17.17,.99-1.78,1.56-3.82,1.56-6,0-6.81-5.52-12.33-12.33-12.33-3.79,0-7.18,1.71-9.44,4.41-5.46-4.62-12.51-7.41-20.22-7.41-4.02,0-7.86,.77-11.4,2.15C135.89,10.13,120.84,0,103.41,0c-14.78,0-27.85,7.3-35.83,18.48-2.26-2.73-5.68-4.47-9.5-4.47-5.18,0-9.6,3.2-11.43,7.72-9.89,.65-17.97,7.93-19.83,17.45-5.45,1.96-10.02,5.74-13.01,10.6-.49-.06-.98-.1-1.48-.1-6.81,0-12.33,5.52-12.33,12.33,0,3.18,1.21,6.07,3.19,8.26-1.2,1.75-1.9,3.87-1.9,6.16,0,6.03,4.89,10.92,10.92,10.92,3.33,0,6.31-1.5,8.31-3.85,4.18,3.05,9.33,4.85,14.9,4.85,7.88,0,14.92-3.6,19.57-9.24,5.23,3.92,11.73,6.24,18.77,6.24,3.65,0,7.14-.63,10.4-1.77,5.82,2.84,12.36,4.44,19.27,4.44,11.31,0,21.63-4.27,29.42-11.29,5.62,5.34,13.21,8.63,21.58,8.63,6.32,0,12.2-1.88,17.12-5.1,3.71,2.98,8.42,4.76,13.55,4.76,4.44,0,8.57-1.34,12.01-3.63,2.26,2.73,5.67,4.47,9.49,4.47,2.4,0,4.63-.7,6.53-1.88,1.61,1.91,4.02,3.13,6.72,3.13,4.86,0,8.79-3.94,8.79-8.79s-3.94-8.79-8.79-8.79Z"/><path class="cls-2" d="M221.35,78.06c-3.6,0-6.63-2.44-7.53-5.76-.91,.81-2.09,1.32-3.41,1.32-1.94,0-3.61-1.09-4.48-2.69-.75,.42-1.6,.69-2.52,.69-2.63,0-4.78-1.99-5.07-4.55-.72,.27-1.5,.42-2.31,.42-2.08,0-3.94-.96-5.16-2.47-1.28,.62-2.71,.97-4.22,.97-2.28,0-4.37-.79-6.03-2.1-4.74,4.7-11.27,7.6-18.47,7.6-14.5,0-26.25-11.75-26.25-26.25,0-1.35,.1-2.68,.3-3.98-1.56,.47-3.21,.73-4.92,.73-2.74,0-5.31-.66-7.6-1.8-7.38,10.17-19.36,16.8-32.9,16.8-10.61,0-20.27-4.07-27.51-10.74-5.47,10.12-16.18,16.99-28.49,16.99-10.64,0-20.08-5.14-25.99-13.06-5.09,1.52-8.8,6.23-8.8,11.81,0,3.18,1.21,6.07,3.19,8.26-1.2,1.75-1.9,3.87-1.9,6.16,0,6.03,4.89,10.92,10.92,10.92,3.33,0,6.31-1.5,8.31-3.85,4.18,3.05,9.33,4.85,14.9,4.85,7.88,0,14.92-3.6,19.57-9.24,5.23,3.92,11.73,6.24,18.77,6.24,3.65,0,7.14-.63,10.4-1.77,5.82,2.84,12.36,4.44,19.27,4.44,11.31,0,21.63-4.27,29.42-11.29,5.62,5.34,13.21,8.63,21.58,8.63,6.32,0,12.2-1.88,17.12-5.1,3.71,2.98,8.42,4.76,13.55,4.76,4.44,0,8.57-1.34,12.01-3.63,2.26,2.73,5.67,4.47,9.49,4.47,2.4,0,4.63-.7,6.53-1.88,1.61,1.91,4.02,3.13,6.72,3.13,4.86,0,8.79-3.94,8.79-8.79,0-1.31-.29-2.54-.8-3.66-1.41,2.07-3.78,3.43-6.47,3.43Z"/><g class="cls-3"><path class="cls-2" d="M220.04,80.5c-3.26,0-6.15-1.59-7.94-4.03-1.71,1.42-3.91,2.28-6.31,2.28-4.61,0-8.48-3.17-9.56-7.44-.63,.12-1.28,.19-1.94,.19-2.79,0-5.31-1.16-7.1-3.03-2.61,1.29-5.54,2.03-8.65,2.03-1.06,0-2.1-.11-3.11-.27-5.16,4.38-11.84,7.02-19.14,7.02-11.72,0-21.84-6.8-26.65-16.67-4.69,3.11-10.31,4.92-16.35,4.92-2.28,0-4.49-.27-6.63-.75-5.41,7.14-13.98,11.75-23.62,11.75-8,0-15.25-3.18-20.58-8.33-3.51,3.3-8.22,5.33-13.42,5.33s-9.93-2.04-13.44-5.35c-3.2,2.26-7.09,3.6-11.31,3.6-10.77,0-19.5-8.67-19.61-19.41-2.85,2.26-4.68,5.74-4.68,9.66,0,3.18,1.21,6.07,3.19,8.26-1.2,1.75-1.9,3.87-1.9,6.16,0,6.03,4.89,10.92,10.92,10.92,3.33,0,6.31-1.5,8.31-3.85,4.18,3.05,9.33,4.85,14.9,4.85,7.88,0,14.92-3.6,19.57-9.24,5.23,3.92,11.73,6.24,18.77,6.24,3.65,0,7.14-.63,10.4-1.77,5.82,2.84,12.36,4.44,19.27,4.44,11.31,0,21.63-4.27,29.42-11.29,5.62,5.34,13.21,8.63,21.58,8.63,6.32,0,12.2-1.88,17.12-5.1,3.71,2.98,8.42,4.76,13.55,4.76,4.44,0,8.57-1.34,12.01-3.63,2.26,2.73,5.67,4.47,9.49,4.47,2.4,0,4.63-.7,6.53-1.88,1.61,1.91,4.02,3.13,6.72,3.13,4.86,0,8.79-3.94,8.79-8.79,0-.79-.11-1.56-.31-2.29-1.76,2.7-4.81,4.49-8.27,4.49Z"/></g></g></g></g></g></svg>