<?xml version="1.0" encoding="UTF-8"?><svg xmlns="http://www.w3.org/2000/svg" viewBox="0 0 189.83 98.04"><defs><style>.cls-1{fill:#fff;}.cls-2,.cls-3{fill:#d9f6ff;}.cls-3{mix-blend-mode:multiply;}.cls-4{isolation:isolate;}</style></defs><g class="cls-4"><g id="Calque_2"><g id="OBJECTS"><g><path class="cls-1" d="M172.73,51.51c-2.29-10.44-10.61-18.62-21.12-20.71,.36-1.18,.56-2.44,.56-3.74,0-7-5.68-12.68-12.68-12.68-3.59,0-6.82,1.5-9.13,3.89-7.29-6.76-17.05-10.9-27.78-10.9-7.41,0-14.35,1.98-20.34,5.42C77.47,5.12,68.95,0,59.24,0c-8.15,0-15.46,3.61-20.42,9.31-1.71-.87-3.65-1.36-5.7-1.36-7,0-12.68,5.68-12.68,12.68,0,.85,.09,1.68,.25,2.48C8.36,29.91,0,43.03,0,58.1c0,22.06,17.88,39.93,39.94,39.93,9.3,0,17.85-3.19,24.63-8.51,2.08,4.15,6.37,7,11.33,7,6.07,0,11.14-4.27,12.38-9.96,4.45,1.66,9.27,2.58,14.31,2.58,10.45,0,19.97-3.92,27.2-10.37,4.57,3.53,10.3,5.64,16.52,5.64,4.57,0,8.87-1.14,12.64-3.13,3.25,3.55,7.91,5.78,13.1,5.78,9.83,0,17.79-7.96,17.79-17.79s-7.6-17.39-17.1-17.76Z"/><path class="cls-2" d="M172.73,51.51c-1.33-6.03-4.67-11.3-9.28-15.08-.62,3.46-3.48,6.14-7.03,6.49-1.31,11.49-11.07,20.41-22.91,20.41-4.2,0-8.13-1.13-11.52-3.09-1.18,2.91-4.02,4.96-7.36,4.96-2.55,0-4.81-1.2-6.26-3.07-1.05,.52-2.24,.82-3.49,.82-.24,0-.48-.01-.72-.04-1.22,2.82-4.02,4.79-7.28,4.79-2.55,0-4.81-1.21-6.27-3.08-1.32,.99-2.96,1.58-4.73,1.58-1.91,0-3.65-.67-5.02-1.79-2.38,2.81-5.94,4.6-9.92,4.6-2.22,0-4.3-.56-6.13-1.54-3.78,4.74-9.59,7.79-16.12,7.79-9.46,0-17.41-6.38-19.84-15.06-10.06-4.73-17.03-14.96-17.03-26.82,0-1.33,.1-2.63,.26-3.91C4.64,36.74,0,46.88,0,58.1c0,22.06,17.88,39.93,39.94,39.93,9.3,0,17.85-3.19,24.63-8.51,2.08,4.15,6.37,7,11.33,7,6.07,0,11.14-4.27,12.38-9.96,4.45,1.66,9.27,2.58,14.31,2.58,10.45,0,19.97-3.92,27.2-10.37,4.57,3.53,10.3,5.64,16.52,5.64,4.57,0,8.87-1.14,12.64-3.13,3.25,3.55,7.91,5.78,13.1,5.78,9.83,0,17.79-7.96,17.79-17.79s-7.6-17.39-17.1-17.76Z"/><path class="cls-3" d="M186.38,58.79c.45,1.37,.7,2.83,.7,4.35,0,7.73-6.27,14-14,14-6.79,0-12.46-4.84-13.73-11.26-2.38,4.33-6.98,7.26-12.27,7.26-3.21,0-6.16-1.09-8.53-2.91-1.24,.73-2.68,1.16-4.22,1.16-2.8,0-5.27-1.39-6.78-3.51-1.18,.64-2.53,1.01-3.97,1.01-.59,0-1.17-.06-1.73-.18-1.58,6-7.03,10.43-13.52,10.43-3.79,0-7.22-1.51-9.75-3.96-1.12,.29-2.29,.46-3.5,.46-1.78,0-3.47-.34-5.03-.95-3.28,2.09-7.16,3.32-11.34,3.32-1.93,0-3.79-.28-5.57-.77-5.79,2.57-12.19,4.02-18.93,4.02-25.73,0-46.59-20.84-46.62-46.56C2.82,41.29,0,49.36,0,58.1c0,22.06,17.88,39.93,39.94,39.93,9.3,0,17.85-3.19,24.63-8.51,2.08,4.15,6.37,7,11.33,7,6.07,0,11.14-4.27,12.38-9.96,4.45,1.66,9.27,2.58,14.31,2.58,10.45,0,19.97-3.92,27.2-10.37,4.57,3.53,10.3,5.64,16.52,5.64,4.57,0,8.87-1.14,12.64-3.13,3.25,3.55,7.91,5.78,13.1,5.78,9.83,0,17.79-7.96,17.79-17.79,0-3.93-1.29-7.54-3.45-10.48Z"/></g></g></g></g></svg>