<?xml version="1.0" encoding="UTF-8"?><svg xmlns="http://www.w3.org/2000/svg" viewBox="0 0 238 131.5"><defs><style>.cls-1{fill:#fff;}.cls-2{fill:#d9f6ff;}.cls-3{mix-blend-mode:multiply;}.cls-4{isolation:isolate;}</style></defs><g class="cls-4"><g id="Calque_2"><g id="OBJECTS"><g><path class="cls-1" d="M226.45,74.8c.04-.35,.05-.7,.05-1.05,0-5.66-4.59-10.25-10.25-10.25-.42,0-.84,.03-1.25,.08-1.52-3.01-4.64-5.08-8.25-5.08-2.86,0-5.42,1.3-7.12,3.34-.15,.04-.3,.08-.45,.12-2.89-5.89-8.93-9.96-15.93-9.96-3.9,0-7.49,1.27-10.42,3.4-2.33-1.6-4.91-2.86-7.68-3.7-1.65-8.38-9.03-14.71-17.9-14.71-1.31,0-2.59,.15-3.83,.41-3.65-5.94-10.19-9.91-17.67-9.91-2.72,0-5.31,.54-7.69,1.49-2.67-8.68-10.75-14.99-20.31-14.99-3.58,0-6.95,.89-9.9,2.46C86.71,7.19,78.83,0,69.25,0s-17.81,7.5-18.66,17.07c-.44-.04-.88-.07-1.34-.07-7.87,0-14.25,6.38-14.25,14.25,0,1.64,.29,3.21,.8,4.68-8.11,6.55-13.3,16.58-13.3,27.82,0,1.82,.14,3.6,.4,5.35-.63-.06-1.26-.1-1.9-.1-11.6,0-21,9.4-21,21s9.4,21,21,21c1.81,0,3.56-.25,5.24-.69,2.75,4.6,7.76,7.69,13.51,7.69,.27,0,.53-.03,.79-.04,3.17,7.93,10.9,13.54,19.96,13.54,6.05,0,11.51-2.51,15.42-6.54,2.57,1.6,5.59,2.54,8.83,2.54,8.06,0,14.79-5.7,16.39-13.29,5.49,4.25,12.38,6.79,19.86,6.79,11.81,0,22.14-6.3,27.83-15.71,2.58,.79,5.33,1.21,8.17,1.21,6.44,0,12.36-2.18,17.09-5.83,2.16,1.77,4.91,2.83,7.91,2.83,2.55,0,4.92-.77,6.89-2.08,2.63,4.81,7.74,8.08,13.61,8.08s10.96-3.25,13.59-8.05c2.17,1.3,4.7,2.05,7.41,2.05,8.01,0,14.5-6.49,14.5-14.5,0-7-4.96-12.84-11.55-14.2Z"/><g class="cls-3"><path class="cls-2" d="M226.45,74.8c.04-.35,.05-.7,.05-1.05,0-5.66-4.59-10.25-10.25-10.25-.42,0-.84,.03-1.25,.08-1.52-3.01-4.64-5.08-8.25-5.08-2.86,0-5.42,1.3-7.12,3.34-.15,.04-.3,.08-.45,.12-.72-1.48-1.65-2.84-2.74-4.06-4.18,12.96-16.34,22.35-30.69,22.35-7.5,0-14.4-2.57-19.88-6.87-2.45,2.39-5.8,3.87-9.5,3.87-2.09,0-4.06-.48-5.83-1.32-1.8,5.41-6.9,9.32-12.92,9.32-1.54,0-3.02-.27-4.41-.74-.32,3.91-3.6,6.99-7.59,6.99-2.05,0-3.91-.81-5.28-2.13-2.22,4.52-6.85,7.63-12.22,7.63-6.63,0-12.15-4.74-13.37-11.02-2.23,1.58-4.94,2.52-7.88,2.52-3.61,0-6.88-1.41-9.32-3.71-5.85,5.99-14.02,9.71-23.05,9.71-12.88,0-23.99-7.55-29.16-18.46-3.31,3.71-5.34,8.59-5.34,13.96,0,11.6,9.4,21,21,21,1.81,0,3.56-.25,5.24-.69,2.75,4.6,7.76,7.69,13.51,7.69,.27,0,.53-.03,.79-.04,3.17,7.93,10.9,13.54,19.96,13.54,6.05,0,11.51-2.51,15.42-6.54,2.57,1.6,5.59,2.54,8.83,2.54,8.06,0,14.79-5.7,16.39-13.29,5.49,4.25,12.38,6.79,19.86,6.79,11.81,0,22.14-6.3,27.83-15.71,2.58,.79,5.33,1.21,8.17,1.21,6.44,0,12.36-2.18,17.09-5.83,2.16,1.77,4.91,2.83,7.91,2.83,2.55,0,4.92-.77,6.89-2.08,2.63,4.81,7.74,8.08,13.61,8.08s10.96-3.25,13.59-8.05c2.17,1.3,4.7,2.05,7.41,2.05,8.01,0,14.5-6.49,14.5-14.5,0-7-4.96-12.84-11.55-14.2Z"/></g><g class="cls-3"><path class="cls-2" d="M226.45,74.8c.04-.35,.05-.7,.05-1.05,0-5.66-4.59-10.25-10.25-10.25-.42,0-.84,.03-1.25,.08-1.52-3.01-4.64-5.08-8.25-5.08-1.86,0-3.58,.55-5.03,1.5,.17,1.03,.28,2.09,.28,3.17,0,10.77-8.73,19.5-19.5,19.5-2.38,0-4.64-.45-6.75-1.22-1.42,9.37-9.49,16.56-19.25,16.56s-18.52-7.8-19.41-17.75c-1.39,.47-2.87,.75-4.42,.75-.27,0-.54-.03-.81-.04-3.15,13.4-15.16,23.37-29.52,23.37-6.35,0-12.24-1.95-17.11-5.29-4.36,4.49-10.46,7.29-17.22,7.29s-13.09-2.9-17.46-7.55c-7.63,4.98-16.74,7.88-26.54,7.88-7.1,0-13.84-1.53-19.92-4.27,3.82,5.21,9.97,8.6,16.92,8.6,1.81,0,3.56-.25,5.24-.69,2.75,4.6,7.76,7.69,13.51,7.69,.27,0,.53-.03,.79-.04,3.17,7.93,10.9,13.54,19.96,13.54,6.05,0,11.51-2.51,15.42-6.54,2.57,1.6,5.59,2.54,8.83,2.54,8.06,0,14.79-5.7,16.39-13.29,5.49,4.25,12.38,6.79,19.86,6.79,11.81,0,22.14-6.3,27.83-15.71,2.58,.79,5.33,1.21,8.17,1.21,6.44,0,12.36-2.18,17.09-5.83,2.16,1.77,4.91,2.83,7.91,2.83,2.55,0,4.92-.77,6.89-2.08,2.63,4.81,7.74,8.08,13.61,8.08s10.96-3.25,13.59-8.05c2.17,1.3,4.7,2.05,7.41,2.05,8.01,0,14.5-6.49,14.5-14.5,0-7-4.96-12.84-11.55-14.2Z"/></g></g></g></g></g></svg>