<?xml version="1.0" encoding="UTF-8"?><svg xmlns="http://www.w3.org/2000/svg" viewBox="0 0 213.46 118.61"><defs><style>.cls-1{fill:#fff;}.cls-2{fill:#d9f6ff;}.cls-3{mix-blend-mode:multiply;}.cls-4{isolation:isolate;}</style></defs><g class="cls-4"><g id="Calque_2"><g id="OBJECTS"><g><path class="cls-1" d="M199.18,67.4c.92-2.56,1.42-5.31,1.42-8.18,0-10.9-7.2-20.11-17.1-23.15-1.07-12.63-11.66-22.55-24.56-22.55-.42,0-.84,.01-1.26,.03-.47-7.56-6.73-13.55-14.41-13.55-4.84,0-9.12,2.39-11.74,6.05-1.38-.44-2.85-.68-4.37-.68-5.93,0-11.02,3.57-13.25,8.68-1.33-.4-2.74-.63-4.21-.63-6.13,0-11.36,3.82-13.46,9.21-.86-.16-1.75-.25-2.65-.25-7.98,0-14.46,6.47-14.46,14.45,0,.13,.02,.26,.02,.39-2.59-.95-5.39-1.46-8.31-1.46-6.98,0-13.27,2.96-17.69,7.69-2.87-.83-5.89-1.28-9.03-1.28-16.4,0-29.96,12.16-32.17,27.95-7.16,4.21-11.96,11.98-11.96,20.88,0,13.37,10.84,24.21,24.21,24.21,5.41,0,10.4-1.78,14.43-4.77,5.9,5.09,13.58,8.18,21.98,8.18,12.04,0,22.6-6.32,28.55-15.83,8.35,8.15,19.77,13.18,32.36,13.18,7.57,0,14.71-1.83,21.03-5.05,4.11,1.78,8.64,2.78,13.4,2.78,6.69,0,12.91-1.96,18.15-5.32,4.15,3.33,9.41,5.32,15.14,5.32,13.37,0,24.21-10.84,24.21-24.21,0-9.83-5.87-18.29-14.29-22.08Z"/><path class="cls-2" d="M199.18,67.4c.68-1.89,1.13-3.89,1.32-5.96-6.44,6.84-15.58,11.12-25.72,11.12-11.49,0-21.7-5.49-28.15-13.99-3.28,2.09-7.17,3.32-11.35,3.32-3.49,0-6.77-.86-9.68-2.36-2.07,6.02-7.77,10.36-14.49,10.36-1.55,0-3.04-.23-4.45-.66-3.42,7.09-10.66,11.99-19.05,11.99-7.05,0-13.29-3.46-17.13-8.77-2.81,3.32-7.01,5.44-11.7,5.44-3.87,0-7.39-1.44-10.09-3.81-5.67,3.87-12.52,6.14-19.91,6.14-7.88,0-15.16-2.58-21.04-6.95-4.75,4.42-7.74,10.72-7.74,17.72,0,13.37,10.84,24.21,24.21,24.21,5.41,0,10.4-1.78,14.43-4.77,5.9,5.09,13.58,8.18,21.98,8.18,12.04,0,22.6-6.32,28.55-15.83,8.35,8.15,19.77,13.18,32.36,13.18,7.57,0,14.71-1.83,21.03-5.05,4.11,1.78,8.64,2.78,13.4,2.78,6.69,0,12.91-1.96,18.15-5.32,4.15,3.33,9.41,5.32,15.14,5.32,13.37,0,24.21-10.84,24.21-24.21,0-9.83-5.87-18.29-14.29-22.08Z"/><g class="cls-3"><path class="cls-2" d="M199.25,67.43c-8.02,6.93-18.46,11.12-29.88,11.12-13.04,0-24.79-5.46-33.12-14.21-3.6,5.26-9.4,8.9-16.07,9.59-2.16,11.32-12.11,19.87-24.06,19.87-7.55,0-14.3-3.42-18.79-8.79-8.32,8.65-20.01,14.04-32.96,14.04-16.83,0-31.53-9.1-39.48-22.63-3.06,4.05-4.89,9.1-4.89,14.57,0,13.37,10.84,24.21,24.21,24.21,5.41,0,10.4-1.78,14.43-4.77,5.9,5.09,13.58,8.18,21.98,8.18,12.04,0,22.6-6.32,28.55-15.83,8.35,8.15,19.77,13.18,32.36,13.18,7.57,0,14.71-1.83,21.03-5.05,4.11,1.78,8.64,2.78,13.4,2.78,6.69,0,12.91-1.96,18.15-5.32,4.15,3.33,9.41,5.32,15.14,5.32,13.37,0,24.21-10.84,24.21-24.21,0-9.81-5.84-18.24-14.22-22.05Z"/></g></g></g></g></g></svg>